<svg xmlns="http://www.w3.org/2000/svg" width="26.572" height="26.572" viewBox="0 0 26.572 26.572">
  <g id="Group_11783" data-name="Group 11783" transform="translate(-44.871 -366.427)">
    <path id="Path_7193" data-name="Path 7193" d="M21.827,26.572H4.745A4.745,4.745,0,0,1,0,21.827V4.745A4.745,4.745,0,0,1,4.745,0H21.827a4.745,4.745,0,0,1,4.745,4.745V21.827a4.745,4.745,0,0,1-4.745,4.745" transform="translate(44.871 366.427)" fill="#3e5c9a"/>
    <path id="Path_7194" data-name="Path 7194" d="M18.779,25.441h3.234v-8.1H24.27l.24-2.712h-2.5V13.086c0-.639.129-.892.747-.892h1.75V9.38H22.271c-2.406,0-3.492,1.06-3.492,3.089V14.63H17.1v2.746h1.682Z" transform="translate(37.425 362.302)" fill="#fff"/>
    <rect id="Rectangle_597" data-name="Rectangle 597" width="26.428" height="26.572" transform="translate(44.943 366.427)" fill="none"/>
  </g>
</svg>
