<svg xmlns="http://www.w3.org/2000/svg" xmlns:xlink="http://www.w3.org/1999/xlink" width="26.571" height="26.571" viewBox="0 0 26.571 26.571">
  <defs>
    <clipPath id="clip-path">
      <rect id="Rectangle_599" data-name="Rectangle 599" width="26.571" height="26.571" rx="4" transform="translate(0 0)" fill="none"/>
    </clipPath>
    <radialGradient id="radial-gradient" cx="-0.014" cy="0.5" r="1.308" gradientTransform="matrix(1, 0, 0, -1, 0, 1.707)" gradientUnits="objectBoundingBox">
      <stop offset="0" stop-color="#f5ec53"/>
      <stop offset="0.241" stop-color="#e48244"/>
      <stop offset="0.399" stop-color="#d05567"/>
      <stop offset="0.489" stop-color="#c84278"/>
      <stop offset="1" stop-color="#192cfa"/>
    </radialGradient>
  </defs>
  <g id="Group_11784" data-name="Group 11784" transform="translate(-109.44 -247)">
    <g id="Group_11778" data-name="Group 11778" transform="translate(109.44 247)" clip-path="url(#clip-path)">
      <rect id="Rectangle_598" data-name="Rectangle 598" width="37.57" height="37.57" transform="translate(-13.275 12.765) rotate(-43.877)" fill="url(#radial-gradient)"/>
    </g>
    <path id="Path_7195" data-name="Path 7195" d="M74.436,12.024c1.945,0,2.175.007,2.944.043a4,4,0,0,1,1.352.251A2.412,2.412,0,0,1,80.115,13.7a4.033,4.033,0,0,1,.251,1.352c.035.768.043,1,.043,2.944s-.008,2.175-.043,2.944a4.037,4.037,0,0,1-.251,1.353,2.412,2.412,0,0,1-1.383,1.382,4.033,4.033,0,0,1-1.352.251c-.768.035-1,.043-2.944.043s-2.175-.008-2.944-.043a4.033,4.033,0,0,1-1.352-.251,2.412,2.412,0,0,1-1.383-1.382,4.037,4.037,0,0,1-.251-1.353c-.035-.768-.042-1-.042-2.944s.007-2.175.042-2.944a4.033,4.033,0,0,1,.251-1.352,2.412,2.412,0,0,1,1.383-1.382,4,4,0,0,1,1.352-.251c.768-.035,1-.043,2.944-.043m0-1.313c-1.978,0-2.226.008-3,.044a5.334,5.334,0,0,0-1.768.339,3.721,3.721,0,0,0-2.13,2.13,5.34,5.34,0,0,0-.339,1.768c-.035.777-.044,1.025-.044,3s.008,2.226.044,3a5.334,5.334,0,0,0,.339,1.768,3.724,3.724,0,0,0,2.13,2.131,5.35,5.35,0,0,0,1.768.338c.777.036,1.025.044,3,.044s2.226-.008,3-.044a5.35,5.35,0,0,0,1.768-.338,3.727,3.727,0,0,0,2.131-2.131A5.35,5.35,0,0,0,81.677,21c.035-.777.044-1.025.044-3s-.008-2.226-.044-3a5.356,5.356,0,0,0-.338-1.768,3.724,3.724,0,0,0-2.131-2.13,5.334,5.334,0,0,0-1.768-.339c-.777-.035-1.025-.044-3-.044" transform="translate(48.289 242.29)" fill="#fff"/>
    <path id="Path_7196" data-name="Path 7196" d="M77.218,17.037a3.741,3.741,0,1,0,3.741,3.741,3.741,3.741,0,0,0-3.741-3.741m0,6.169a2.428,2.428,0,1,1,2.428-2.428,2.428,2.428,0,0,1-2.428,2.428" transform="translate(45.508 239.508)" fill="#fff"/>
    <path id="Path_7197" data-name="Path 7197" d="M87.283,16.087a.874.874,0,1,1-.875-.874.875.875,0,0,1,.875.874" transform="translate(40.206 240.31)" fill="#fff"/>
  </g>
</svg>
