<svg xmlns="http://www.w3.org/2000/svg" width="27.144" height="27.144" viewBox="0 0 27.144 27.144">
  <g id="Group_11782" data-name="Group 11782" transform="translate(-160.471 -366.427)">
    <path id="Path_7191" data-name="Path 7191" d="M137.768,27.144h-17.45a4.847,4.847,0,0,1-4.847-4.847V4.847A4.847,4.847,0,0,1,120.318,0h17.45a4.847,4.847,0,0,1,4.847,4.847V22.3a4.847,4.847,0,0,1-4.847,4.847" transform="translate(45 366.427)" fill="#29a9e1"/>
    <path id="Path_7192" data-name="Path 7192" d="M126.55,23.866a8.439,8.439,0,0,0,12.982-7.493,6.028,6.028,0,0,0,1.481-1.536,5.935,5.935,0,0,1-1.7.467,2.97,2.97,0,0,0,1.3-1.641,5.956,5.956,0,0,1-1.884.721,2.969,2.969,0,0,0-5.056,2.706,8.42,8.42,0,0,1-6.115-3.1,2.97,2.97,0,0,0,.918,3.962,2.958,2.958,0,0,1-1.344-.371,2.971,2.971,0,0,0,2.38,2.947,2.977,2.977,0,0,1-1.339.05,2.969,2.969,0,0,0,2.771,2.061,5.964,5.964,0,0,1-4.393,1.228" transform="translate(40.262 360.677)" fill="#fff"/>
  </g>
</svg>
