<svg xmlns="http://www.w3.org/2000/svg" width="112.934" height="34.819" viewBox="0 0 112.934 34.819">
  <g id="Group_1597" data-name="Group 1597" transform="translate(-123.623 -52.09)">
    <path id="Path_93" data-name="Path 93" d="M20.688.236h8.7L8.649,34.468H0ZM.155.266H8.411c-5.406.2-7.372,2.689-8.257,9.1ZM21.1,34.468c5.454-.147,7.372-2.641,8.305-9.1v9.1Z" transform="translate(123.623 52.148)" fill="#fff"/>
    <path id="Path_94" data-name="Path 94" d="M38.6,34.468c1.917-.391,2.7-1.222,2.7-4.3V19.9L32.461,4.05C30.937,1.311,29.611.627,27.645.236H41.4C39.832.627,39.341,1.41,40.815,4l1.376,2.641,6.783,11.933V30.164c0,3.082.688,3.913,2.7,4.3ZM62.635.236c-3.833.93-6,2.592-8.846,8.46,2.6-5.868,2.064-7.53-.835-8.46Z" transform="translate(130.427 52.148)" fill="#fff"/>
    <path id="Path_95" data-name="Path 95" d="M67,23.082C67,30.32,70.3,34.526,74.72,34.819c-8.993-.293-16.364-7.09-16.364-17.36C58.356,6.9,65.481.049,75.261,0,70.051.1,67,4.3,67,11.786Zm22.919-11.3C89.923,4.254,86.286.1,81.617,0c9.19.1,16.955,6.945,16.955,17.361,0,10.368-6.978,17.165-16.414,17.458,4.816-.293,7.765-4.5,7.765-11.737Z" transform="translate(137.985 52.09)" fill="#fff"/>
  </g>
</svg>
