<svg xmlns="http://www.w3.org/2000/svg" xmlns:xlink="http://www.w3.org/1999/xlink" width="171.086" height="23.201" viewBox="0 0 171.086 23.201">
  <defs>
    <clipPath id="clip-path">
      <rect id="Rectangle_191" data-name="Rectangle 191" width="171.086" height="23.201" fill="#fff"/>
    </clipPath>
    <clipPath id="clip-path-2">
      <path id="Path_579" data-name="Path 579" d="M9.216,0A14.277,14.277,0,0,0,0,3.715C15.46-5.745,17.326,23.2,28.432,23.2H142.654c11.105,0,12.972-28.946,28.432-19.486A14.277,14.277,0,0,0,161.87,0Z" fill="#fff"/>
    </clipPath>
    <clipPath id="clip-path-4">
      <path id="Path_583" data-name="Path 583" d="M391.665,4.04Z" transform="translate(-391.665 -4.04)" fill="#fff"/>
    </clipPath>
    <clipPath id="clip-path-5">
      <path id="Path_581" data-name="Path 581" d="M12.211,4.04h0Z" transform="translate(-12.211 -4.04)" fill="#fff"/>
    </clipPath>
  </defs>
  <g id="Group_11839" data-name="Group 11839" transform="translate(-1403.703 -11277.799)">
    <g id="Group_1614" data-name="Group 1614" transform="translate(1300.183 10887)">
      <g id="Group_1605" data-name="Group 1605" transform="translate(103.521 390.799)" clip-path="url(#clip-path)">
        <path id="Path_577" data-name="Path 577" d="M0,5.062H12.972A8.787,8.787,0,0,0,6.59,2.487,12.5,12.5,0,0,0,0,5.062" transform="translate(0 -1.348)" fill="#b7b7b7"/>
        <path id="Path_578" data-name="Path 578" d="M386.226,5.062H373.254a8.787,8.787,0,0,1,6.382-2.576,12.5,12.5,0,0,1,6.59,2.576" transform="translate(-215.14 -1.348)" fill="#b7b7b7"/>
      </g>
      <g id="Group_1607" data-name="Group 1607" transform="translate(103.521 390.799)" clip-path="url(#clip-path-2)">
        <rect id="Rectangle_192" data-name="Rectangle 192" width="171.086" height="28.946" transform="translate(0 -5.745)" fill="#fff"/>
      </g>
      <g id="Group_1613" data-name="Group 1613" transform="translate(103.521 390.799)" clip-path="url(#clip-path)">
        <g id="Group_1612" data-name="Group 1612" transform="translate(165.913 1.839)">
          <g id="Group_1611" data-name="Group 1611" clip-path="url(#clip-path-4)">
            <path id="Path_582" data-name="Path 582" d="M391.665,4.04Z" transform="translate(-391.665 -4.04)" fill="#fff"/>
          </g>
        </g>
      </g>
      <g id="Group_1609" data-name="Group 1609" transform="translate(108.16 392.334)" clip-path="url(#clip-path-5)">
        <path id="Path_580" data-name="Path 580" d="M12.211,4.04Z" transform="translate(-12.211 -4.04)" fill="#fff"/>
      </g>
    </g>
    <path id="Path_7209" data-name="Path 7209" d="M.4-2.355C.486-.826,1.752.141,3.627.141c2,0,3.264-.99,3.264-2.572,0-1.236-.721-1.934-2.455-2.344L3.5-5c-1.09-.27-1.535-.621-1.535-1.219,0-.75.7-1.266,1.717-1.266s1.717.51,1.793,1.354H6.756C6.715-7.594,5.49-8.6,3.7-8.6c-1.8,0-3.076,1-3.076,2.461,0,1.178.721,1.9,2.273,2.279L4-3.592c1.1.27,1.559.662,1.559,1.318,0,.756-.768,1.307-1.834,1.307-1.113,0-1.928-.551-2.021-1.389ZM7.963,0H9.229V-3.562A1.463,1.463,0,0,1,10.74-5.18a1.268,1.268,0,0,1,1.348,1.453V0h1.271V-3.973A2.072,2.072,0,0,0,11.2-6.27,2.01,2.01,0,0,0,9.246-5.133H9.217V-8.455H7.963Zm9.264.117c1.764,0,2.924-1.213,2.924-3.2a2.863,2.863,0,0,0-2.924-3.193A2.863,2.863,0,0,0,14.3-3.082C14.3-1.1,15.463.117,17.227.117Zm0-1.043c-.99,0-1.635-.785-1.635-2.156s.645-2.15,1.635-2.15,1.635.785,1.635,2.15S18.223-.926,17.227-.926ZM24.34-6.264A2.135,2.135,0,0,0,22.377-5.1h-.023V-6.164H21.129v8.2h1.266V-1.014h.029A2.1,2.1,0,0,0,24.363.105c1.547,0,2.572-1.236,2.572-3.187S25.9-6.264,24.34-6.264Zm-.334,5.3c-.973,0-1.617-.832-1.617-2.115S23.039-5.2,24.006-5.2c1,0,1.629.826,1.629,2.115S25.008-.967,24.006-.967ZM33.885,0c1.8,0,2.883-.9,2.883-2.391a2.034,2.034,0,0,0-1.922-2.068v-.047a1.877,1.877,0,0,0,1.506-1.84c0-1.277-.984-2.109-2.484-2.109H30.492V0ZM31.8-7.383h1.746c.949,0,1.488.434,1.488,1.219,0,.838-.627,1.307-1.764,1.307H31.8Zm0,6.311V-3.855h1.734c1.242,0,1.887.469,1.887,1.383s-.627,1.4-1.811,1.4ZM38.355,2.3c1.283,0,1.887-.48,2.414-1.975l2.314-6.486H41.748L40.184-1.148h-.018L38.6-6.164H37.23L39.457.006c0,.006-.111.369-.111.381a1.023,1.023,0,0,1-1.1.879,2.341,2.341,0,0,1-.41-.023V2.268A4.975,4.975,0,0,0,38.355,2.3ZM49.975.141a3.332,3.332,0,0,0,3.592-2.771H52.26A2.171,2.171,0,0,1,49.98-1.008c-1.553,0-2.537-1.248-2.537-3.223,0-1.957,1-3.217,2.531-3.217A2.25,2.25,0,0,1,52.26-5.654h1.3A3.4,3.4,0,0,0,49.975-8.6C47.613-8.6,46.1-6.908,46.1-4.23,46.1-1.535,47.6.141,49.975.141ZM56.754-.9c-.68,0-1.125-.352-1.125-.891s.428-.861,1.184-.914l1.518-.094v.486A1.477,1.477,0,0,1,56.754-.9Zm-.352,1a2.2,2.2,0,0,0,1.945-1.119h.029V0H59.59V-4.248c0-1.236-.955-2.027-2.449-2.027-1.523,0-2.473.82-2.543,1.934h1.2a1.18,1.18,0,0,1,1.3-.9c.773,0,1.236.41,1.236,1.1v.475l-1.687.1c-1.465.082-2.291.744-2.291,1.822A1.869,1.869,0,0,0,56.4.105Zm4.781-7.729v1.459h-.9v1h.9v3.539c0,1.189.486,1.664,1.734,1.664a3.486,3.486,0,0,0,.7-.059v-1a2.769,2.769,0,0,1-.416.029c-.516,0-.75-.24-.75-.773v-3.4h1.172v-1H62.455V-7.623ZM67.1-5.256A1.514,1.514,0,0,1,68.607-3.65H65.525A1.589,1.589,0,0,1,67.1-5.256ZM68.6-1.811a1.4,1.4,0,0,1-1.424.9A1.616,1.616,0,0,1,65.52-2.689v-.076h4.354V-3.2c0-1.869-1.066-3.076-2.777-3.076-1.74,0-2.854,1.289-2.854,3.223s1.1,3.17,2.906,3.17A2.489,2.489,0,0,0,69.8-1.811Zm4.875.785c-.973,0-1.605-.785-1.605-2.074s.633-2.1,1.605-2.1c.99,0,1.641.832,1.641,2.1S74.467-1.025,73.477-1.025Zm.012,3.346c1.758,0,2.895-.961,2.895-2.432V-6.164h-1.23v1.055h-.023a2.152,2.152,0,0,0-1.963-1.154c-1.582,0-2.59,1.219-2.59,3.158,0,1.922,1.014,3.129,2.561,3.129a2.143,2.143,0,0,0,1.951-1.107h.023V-.07a1.393,1.393,0,0,1-1.576,1.406A1.463,1.463,0,0,1,72.07.48H70.8A2.48,2.48,0,0,0,73.488,2.32Zm6.791-2.2c1.764,0,2.924-1.213,2.924-3.2a2.863,2.863,0,0,0-2.924-3.193,2.863,2.863,0,0,0-2.924,3.193C77.355-1.1,78.516.117,80.279.117Zm0-1.043c-.99,0-1.635-.785-1.635-2.156s.645-2.15,1.635-2.15,1.635.785,1.635,2.15S81.275-.926,80.279-.926Zm3.9.926h1.266V-3.691a1.272,1.272,0,0,1,1.318-1.418,1.812,1.812,0,0,1,.568.07V-6.217a2.309,2.309,0,0,0-.434-.047,1.485,1.485,0,0,0-1.482,1.148h-.029V-6.164H84.182Zm4.547,2.3c1.283,0,1.887-.48,2.414-1.975l2.314-6.486H92.121L90.557-1.148h-.018L88.975-6.164H87.6L89.83.006c0,.006-.111.369-.111.381a1.023,1.023,0,0,1-1.1.879,2.341,2.341,0,0,1-.41-.023V2.268A4.975,4.975,0,0,0,88.729,2.3Z" transform="translate(1442 11295)"/>
  </g>
</svg>
