<svg xmlns="http://www.w3.org/2000/svg" xmlns:xlink="http://www.w3.org/1999/xlink" width="240.01" height="240.013" viewBox="0 0 240.01 240.013">
  <defs>
    <linearGradient id="linear-gradient" x1="0.156" y1="0.033" x2="1.588" y2="0.849" gradientUnits="objectBoundingBox">
      <stop offset="0" stop-color="#00c569"/>
      <stop offset="1" stop-color="#00c569" stop-opacity="0"/>
    </linearGradient>
  </defs>
  <g id="Group_35535" data-name="Group 35535" transform="translate(-86.121 -279)">
    <path id="Path_37231" data-name="Path 37231" d="M142.18,229.1A114.548,114.548,0,1,1,256.727,114.549,114.679,114.679,0,0,1,142.18,229.1m0-224.374A109.826,109.826,0,1,0,252,114.549,109.95,109.95,0,0,0,142.18,4.722" transform="translate(69.405 279)" fill="url(#linear-gradient)"/>
    <path id="Path_37232" data-name="Path 37232" d="M136.967,233.039c-53.434,0-100.3-37.871-111.444-90.046a1.77,1.77,0,1,1,3.461-.739c10.8,50.554,56.209,87.244,107.983,87.244a110.3,110.3,0,0,0,34.213-5.4,1.772,1.772,0,1,1,1.1,3.369,113.909,113.909,0,0,1-35.311,5.577m75.113-28.856a1.772,1.772,0,0,1-1.188-3.086,110.629,110.629,0,0,0,36.489-82.017l0-.456a1.77,1.77,0,0,1,1.759-1.783h.012a1.77,1.77,0,0,1,1.771,1.759l0,.479a114.183,114.183,0,0,1-37.658,84.647,1.766,1.766,0,0,1-1.185.456m-187.3-83.214a1.676,1.676,0,0,1-1.771-1.655v-.234A114.193,114.193,0,0,1,60.489,34.6a1.77,1.77,0,1,1,2.378,2.623A110.659,110.659,0,0,0,26.55,119.08a1.874,1.874,0,0,1-1.771,1.889M246.626,97.083a1.771,1.771,0,0,1-1.728-1.4C234.021,45.263,188.63,8.666,136.967,8.666a110.3,110.3,0,0,0-34.435,5.475,1.772,1.772,0,0,1-1.1-3.367,113.886,113.886,0,0,1,35.54-5.65c53.319,0,100.166,37.771,111.392,89.815a1.77,1.77,0,0,1-1.358,2.1,1.692,1.692,0,0,1-.375.04" transform="translate(63.113 285.974)" fill="#fff" opacity="0.04"/>
    <path id="Path_37233" data-name="Path 37233" d="M173.422,25.164,96.129,102.456l-30.6-30.6L44.256,93.128,96.129,145l98.565-98.565Z" transform="translate(92.031 313.248)" fill="#00c569"/>
  </g>
</svg>
