<svg id="Group_11688" data-name="Group 11688" xmlns="http://www.w3.org/2000/svg" width="23.139" height="14.242" viewBox="0 0 23.139 14.242">
  <path id="Path_7143" data-name="Path 7143" d="M346.694,1837.8c1.982,1.818,2.723,2.4,4.707,4.215l-.73.8c-1.99-1.825-2.735-2.4-4.719-4.224a5.644,5.644,0,0,1-4.386,1.386,5.521,5.521,0,0,1-3.818-2.063,5.716,5.716,0,1,1,8.945-.113m.108-3.5a4.637,4.637,0,1,0-4.626,4.625,4.634,4.634,0,0,0,4.626-4.625" transform="translate(-328.263 -1828.57)"/>
  <line id="Line_32" data-name="Line 32" x2="5.462" transform="translate(0 0.899)" fill="none" stroke="#000" stroke-miterlimit="10" stroke-width="1.5"/>
  <line id="Line_33" data-name="Line 33" x2="5.462" transform="translate(0 6.692)" fill="none" stroke="#000" stroke-miterlimit="10" stroke-width="1.5"/>
  <line id="Line_34" data-name="Line 34" x2="5.462" transform="translate(0 12.486)" fill="none" stroke="#000" stroke-miterlimit="10" stroke-width="1.5"/>
</svg>
