<svg xmlns="http://www.w3.org/2000/svg" width="14" height="18" viewBox="0 0 14 18">
  <g id="Group_11836" data-name="Group 11836" transform="translate(-1288 -13940)">
    <rect id="Rectangle_609" data-name="Rectangle 609" width="14" height="18" transform="translate(1288 13940)" fill="#ffb011"/>
    <g id="noun_flash_4417061" transform="translate(1292.539 13941.142)">
      <g id="Calque_2" data-name="Calque 2" transform="translate(0 0.005)">
        <g id="Group_1624" data-name="Group 1624" transform="translate(0 0)">
          <path id="Path_613" data-name="Path 613" d="M4.74,5.239H3.755a.186.186,0,0,1-.182-.227L4.657.118A.093.093,0,0,0,4.5.036L.054,4.928a.186.186,0,0,0,.138.311H2.043a.186.186,0,0,1,.181.229L1.394,8.951a.186.186,0,0,0,.321.167L4.88,5.549a.186.186,0,0,0-.141-.31Z" transform="translate(-0.006 -0.005)"/>
        </g>
      </g>
    </g>
  </g>
</svg>
