<svg id="Icon_share" xmlns="http://www.w3.org/2000/svg" width="15" height="16" viewBox="0 0 15 16">
  <g id="Icon_share-2" data-name="Icon_share">
    <path id="Shape" d="M12.353,16a2.653,2.653,0,0,1-2.6-2.178L4.416,9.984a2.633,2.633,0,0,1-1.769.682,2.666,2.666,0,0,1,0-5.333,2.624,2.624,0,0,1,1.815.725L9.729,3.026a2.646,2.646,0,1,1,2.624,2.308,2.628,2.628,0,0,1-1.815-.726L5.271,7.641A2.841,2.841,0,0,1,5.294,8a2.776,2.776,0,0,1-.031.409L10.119,11.9a2.633,2.633,0,0,1,2.235-1.237,2.667,2.667,0,0,1,0,5.334Zm0-3.555a.888.888,0,0,0-.883.882.044.044,0,0,1,0,.014.883.883,0,1,0,.883-.9ZM2.647,7.111A.889.889,0,1,0,3.529,8,.887.887,0,0,0,2.647,7.111Zm9.706-5.334a.889.889,0,1,0,.882.889A.887.887,0,0,0,12.353,1.778Z" fill="#fff"/>
  </g>
</svg>
