<svg xmlns="http://www.w3.org/2000/svg" width="15.475" height="17.369" viewBox="0 0 15.475 17.369">
  <g id="Group_11836" data-name="Group 11836" transform="translate(-1369.75 -1640.881)">
    <g id="noun_Jacket_2760459" transform="translate(1370 1642.493)">
      <g id="Group_11690" data-name="Group 11690" transform="translate(0 0)">
        <path id="Path_7150" data-name="Path 7150" d="M9.85,5.347V4.424a.3.3,0,0,1,.1-.219,4.416,4.416,0,0,1,2.916-.7,4.416,4.416,0,0,1,2.916.7.3.3,0,0,1,.1.219v.924h1.005c1.525,0,2.345.754,2.345,2.155v8.621a.967.967,0,0,1-1.005.924H17.22v.308a.967.967,0,0,1-1.005.924h-6.7a.967.967,0,0,1-1.005-.924v-.308H7.505A.967.967,0,0,1,6.5,16.123V7.5c0-1.4.82-2.155,2.345-2.155Zm.67.308a.322.322,0,0,1-.335.308H8.845C7.69,5.963,7.17,6.441,7.17,7.5v8.621a.322.322,0,0,0,.335.308h1.34a.322.322,0,0,1,.335.308v.616a.322.322,0,0,0,.335.308h6.7a.322.322,0,0,0,.335-.308v-.616a.322.322,0,0,1,.335-.308h1.34a.322.322,0,0,0,.335-.308V7.5c0-1.061-.52-1.539-1.675-1.539h-1.34a.322.322,0,0,1-.335-.308V4.563a4.373,4.373,0,0,0-2.345-.447,4.373,4.373,0,0,0-2.345.447Z" transform="translate(-6.5 -3.5)" stroke="#000" stroke-width="0.5"/>
        <path id="Path_7151" data-name="Path 7151" d="M13.468,6.783V18.355a.332.332,0,0,1-.663,0V5.722a6.7,6.7,0,0,1-2.469-.639.3.3,0,0,1-.148-.413.344.344,0,0,1,.445-.138,5.9,5.9,0,0,0,2.5.583,5.9,5.9,0,0,0,2.5-.583.344.344,0,0,1,.445.138.3.3,0,0,1-.148.413,6.7,6.7,0,0,1-2.469.639v.189l.566.526a.293.293,0,0,1,0,.435.35.35,0,0,1-.469,0l-.1-.09Zm3.647,10.648h.995v-.308a.332.332,0,0,1,.663,0v.616a.32.32,0,0,1-.332.308H17.116a.309.309,0,1,1,0-.616Zm-8.953-.308v.308h.995a.309.309,0,1,1,0,.616H7.832a.32.32,0,0,1-.332-.308v-.616a.332.332,0,0,1,.663,0Zm7.958,1.539v-.308a.332.332,0,0,1,.663,0v.616a.32.32,0,0,1-.332.308H9.821a.32.32,0,0,1-.332-.308v-.616a.332.332,0,0,1,.663,0v.308Zm1.326-1.539a.332.332,0,0,1-.663,0v-8a.332.332,0,0,1,.663,0Zm-7.958,0a.332.332,0,0,1-.663,0v-8a.332.332,0,0,1,.663,0Z" transform="translate(-6.772 -3.771)" stroke="#000" stroke-width="0.5"/>
      </g>
    </g>
    <path id="Path_7146" data-name="Path 7146" d="M45.992,23.525l.572-1.021,1.061-.572-1.061-.572L45.992,20.3l-.531,1.061-1.061.572,1.061.572Z" transform="translate(1337.6 1620.581)"/>
  </g>
</svg>
