<svg xmlns="http://www.w3.org/2000/svg" width="20.5" height="14.902" viewBox="0 0 20.5 14.902">
  <g id="noun_message_1977390" transform="translate(-5.75 -13.275)">
    <path id="Path_573" data-name="Path 573" d="M24.737,13.525H7.263A1.3,1.3,0,0,0,6,14.849V26.6a1.3,1.3,0,0,0,1.263,1.324H24.737A1.3,1.3,0,0,0,26,26.6V14.849A1.3,1.3,0,0,0,24.737,13.525Zm-.353.874L16,21.647,7.615,14.4ZM6.833,26.6V14.855l6.791,5.871Zm.782.456,6.664-5.761,1.456,1.259a.4.4,0,0,0,.53,0l1.456-1.259,6.663,5.761ZM25.167,26.6l-6.791-5.871,6.791-5.871Z" transform="translate(0 0)" fill="#fff" stroke="#fff" stroke-width="0.5"/>
  </g>
</svg>
