<svg xmlns="http://www.w3.org/2000/svg" width="16.299" height="14.902" viewBox="0 0 16.299 14.902">
  <g id="noun_Heart_1742987" transform="translate(-11.755 -15.783)">
    <g id="Group_1596" data-name="Group 1596" transform="translate(12.005 16.033)">
      <path id="Path_574" data-name="Path 574" d="M16.111,968.395a3.96,3.96,0,0,0-2.9,1.279,4.549,4.549,0,0,0-.006,6.155l6.4,6.844a.427.427,0,0,0,.6,0q3.2-3.417,6.4-6.837a4.547,4.547,0,0,0,0-6.154,3.942,3.942,0,0,0-5.815,0l-.884.934-.884-.941a3.91,3.91,0,0,0-2.911-1.279Zm0,.835a3.164,3.164,0,0,1,2.313,1.034l1.182,1.265a.427.427,0,0,0,.6,0l1.176-1.259a3.1,3.1,0,0,1,4.619,0,3.687,3.687,0,0,1,0,4.982l-6.1,6.512-6.1-6.519a3.688,3.688,0,0,1,0-4.982A3.15,3.15,0,0,1,16.111,969.23Z" transform="translate(-12.005 -968.395)" fill="#fff" stroke="#fff" stroke-width="0.5"/>
    </g>
  </g>
</svg>
