<svg xmlns="http://www.w3.org/2000/svg" width="13.353" height="15.906" viewBox="0 0 13.353 15.906">
  <g id="noun_tote_bag_3205182" data-name="noun_tote bag_3205182" transform="translate(0.25 -143.047)">
    <g id="Layer_11" data-name="Layer 11">
      <path id="Path_575" data-name="Path 575" d="M18.1,4.5h-2.97a3.168,3.168,0,0,0-6.215,0H5.948a.349.349,0,0,0-.349.349V17a.349.349,0,0,0,.349.349H18.1A.349.349,0,0,0,18.451,17V4.846A.349.349,0,0,0,18.1,4.5ZM12.025,2.642A2.472,2.472,0,0,1,14.414,4.5H9.636a2.472,2.472,0,0,1,2.389-1.854Zm5.728,14.009H6.3V5.195H8.856V6.636a.349.349,0,0,0,.7,0V5.195H14.5V6.636a.349.349,0,0,0,.7,0V5.195h2.559Z" transform="translate(-5.599 141.354)" fill="#fff" stroke="#fff" stroke-width="0.5"/>
    </g>
  </g>
</svg>
