<svg xmlns="http://www.w3.org/2000/svg" width="17" height="17" viewBox="0 0 17 17">
  <g id="Icon_settings" transform="translate(0.5 0.5)">
    <path id="Shape" d="M8.5,16h-1a1,1,0,0,1-1-1l-.12-.84A1,1,0,0,0,4.79,13.5l-.678.51a1,1,0,0,1-1.414,0L1.99,13.3a1,1,0,0,1,0-1.414l.51-.679A1,1,0,0,0,1.84,9.62L1,9.5a1,1,0,0,1-1-1v-1a1,1,0,0,1,1-1l.84-.12A1,1,0,0,0,2.5,4.79l-.51-.678a1,1,0,0,1,0-1.414L2.7,1.99a1,1,0,0,1,1.414,0l.678.51A1,1,0,0,0,6.38,1.84L6.5,1a1,1,0,0,1,1-1h1a1,1,0,0,1,1,1l.12.84a1,1,0,0,0,1.59.659l.679-.51a1,1,0,0,1,1.414,0l.707.707a1,1,0,0,1,0,1.414l-.51.678a1,1,0,0,0,.659,1.59L15,6.5a1,1,0,0,1,1,1v1a1,1,0,0,1-1,1l-.84.12a1,1,0,0,0-.659,1.59l.51.679a1,1,0,0,1,0,1.414l-.707.707a1,1,0,0,1-1.414,0l-.679-.51a1,1,0,0,0-1.59.659L9.5,15A1,1,0,0,1,8.5,16ZM8,6a2,2,0,1,0,2,2A2,2,0,0,0,8,6Z" fill="none" stroke="#000" stroke-width="1"/>
  </g>
</svg>
