<svg xmlns="http://www.w3.org/2000/svg" width="16.229" height="15.999" viewBox="0 0 16.229 15.999">
  <path id="Path_7141" data-name="Path 7141" d="M728.249,1832.648c-.015.146-.028.294-.046.44a5.568,5.568,0,0,1-1.335,3.1c-.259.294-.56.537-.842.8l-5.087,4.808a.383.383,0,0,1-.62,0l-5.879-5.558a3.727,3.727,0,0,1-.609-.832,5.573,5.573,0,0,1-.78-2.382,5.658,5.658,0,0,1,1.986-5.119,3.873,3.873,0,0,1,2.087-.906,4.125,4.125,0,0,1,3.431,1.2l.072.069.156-.145a4.151,4.151,0,0,1,2.355-1.119,4.063,4.063,0,0,1,3.456,1.216,5.494,5.494,0,0,1,1.578,3.174c.03.19.043.384.064.576,0,.03.009.059.013.088Zm-7.62,8.26.08-.074,4.924-4.655a9.9,9.9,0,0,0,.718-.694,4.609,4.609,0,0,0,1.093-2.812,4.821,4.821,0,0,0-.784-3.032,3.624,3.624,0,0,0-2.685-1.721,3.222,3.222,0,0,0-1.922.38,3.762,3.762,0,0,0-1.121.915.346.346,0,0,1-.438.13.687.687,0,0,1-.2-.172,3.418,3.418,0,0,0-5.086-.267,4.944,4.944,0,0,0-1.136,5.082,4.418,4.418,0,0,0,1.195,1.854c1.563,1.453,3.109,2.932,4.661,4.4l.706.667" transform="translate(-712.52 -1826.474)" stroke="#000" stroke-width="1"/>
</svg>
